<svg width="318" height="54" viewBox="0 0 318 54" fill="none" xmlns="http://www.w3.org/2000/svg">
<path d="M14.9194 0H24.5447C30.9558 17.9829 37.2135 36.0171 43.6332 54H33.1043C27.0086 36.0171 21.0492 17.9743 14.9194 0Z" fill="white"/>
<path d="M46.677 0H66.9761C75.4164 0.591429 83.8566 5.05714 87.9488 12.7029C93.4989 22.9714 92.6463 36.9514 84.7603 45.7886C80.3526 50.7171 73.8647 53.2971 67.4109 54H46.677C46.677 36 46.677 18 46.677 0ZM56.2682 9.21429C56.2682 21.0686 56.2682 32.9314 56.2682 44.7857C62.2871 44.6914 68.8262 45.54 74.2057 42.1971C79.6109 39.1543 81.9128 32.5714 81.657 26.6143C81.7849 20.6743 79.0908 14.3914 73.6942 11.5286C68.3914 8.46857 62.1081 9.32571 56.2682 9.21429Z" fill="white"/>
<path d="M86.9424 0H97.5481C101.947 12.8486 106.304 25.7229 110.592 38.6143C115.23 25.7743 119.595 12.8229 124.275 0H134.847C128.248 17.9829 121.726 36 115.187 54H106.065C99.6112 36.0257 93.3791 17.9743 86.9424 0Z" fill="white"/>
<path d="M154.072 0H159.793C170.825 0.934286 180.552 9.31714 183.391 20.0314C169.674 25.8771 155.939 31.6457 142.222 37.4914C145.973 42.5057 152.171 45.6429 158.471 45.0257C165.394 44.6314 171.481 39.7457 174.099 33.3943C176.869 34.56 179.623 35.7429 182.385 36.9171C178.762 46.2771 169.7 53.1429 159.742 54H153.953C141.139 52.7143 130.227 41.3229 129.911 28.3029C128.871 14.3486 140.278 1.22571 154.072 0ZM150.645 10.08C143.177 12.8057 138.13 20.82 138.948 28.7829C149.588 24.2571 160.27 19.8171 170.893 15.2229C165.965 9.6 157.627 7.34571 150.645 10.08Z" fill="white"/>
<path d="M186.495 0H208.243C213.64 0.797143 218.67 4.09714 221.253 8.97429C224.152 14.4086 223.64 21.5314 219.821 26.3914C217.826 29.1086 214.944 30.9943 211.867 32.2543C216.675 39.5314 221.535 46.7657 226.394 54H214.902C210.153 47.2543 205.728 40.2771 201.125 33.4286C199.437 33.4286 197.766 33.4286 196.086 33.4286C196.086 40.2857 196.086 47.1429 196.086 54H186.495C186.495 36 186.495 18 186.495 0ZM196.086 9.21429C196.086 14.2114 196.086 19.2171 196.086 24.2143C199.215 24.1886 202.344 24.2657 205.481 24.2057C208.729 24.1457 211.995 22.0286 212.984 18.84C214.535 14.5114 210.852 9.42857 206.368 9.24857C202.94 9.13714 199.513 9.24857 196.086 9.21429Z" fill="white"/>
<path d="M249.498 0H254.988C257.597 0.308571 260.138 1.02 262.61 1.90286C261.51 4.72286 260.487 7.56857 259.302 10.3543C255.244 8.76857 250.649 8.42571 246.489 9.80571C240.222 11.82 235.278 17.5286 234.255 24.0771C233.078 30.5143 235.926 37.38 241.092 41.2971C246.625 45.7286 254.809 46.2943 260.956 42.8229C267.188 39.4371 270.846 32.2629 270.309 25.2086C264.597 27.6 258.919 30.0343 253.215 32.4257C251.962 29.5971 250.76 26.7429 249.558 23.8971C258.203 20.2714 266.813 16.5514 275.467 12.9514C280.096 20.6914 280.573 30.7714 276.601 38.8886C272.619 47.2286 264.153 53.0914 255.006 54H249.421C242.2 53.3057 235.363 49.6114 230.853 43.8857C223.768 35.2714 223.069 22.08 229.028 12.6771C233.411 5.55429 241.186 0.737143 249.498 0Z" fill="white"/>
<path d="M274.358 0H284.947C288.289 9.19714 291.477 18.4457 294.717 27.6771C290.676 26.0143 286.66 24.2743 282.645 22.56C279.806 15.0686 277.172 7.5 274.358 0Z" fill="white"/>
<path d="M306.746 0H318V0.317143C311.759 18.2314 305.399 36.1114 299.09 54H289.414C295.638 36.06 301.52 17.9914 307.633 0.00857143L306.746 0Z" fill="white"/>
<path d="M8.89207 31.1313C12.6006 29.4428 16.403 27.9513 20.1372 26.3228C16.9742 35.5713 13.726 44.7942 10.4266 53.9999H0V53.6485C2.32745 47.057 4.80836 40.5256 7.11877 33.9256C7.58767 32.9399 7.6985 31.5428 8.89207 31.1313Z" fill="white"/>
</svg>
