<svg width="24" height="24" viewBox="0 0 24 24" fill="none" xmlns="http://www.w3.org/2000/svg">
<path d="M12.9 10.8996L12.8993 5.89961C12.9016 5.76685 12.8774 5.63495 12.8282 5.51163C12.779 5.3883 12.7057 5.276 12.6126 5.1813C12.5196 5.08659 12.4086 5.01137 12.2861 4.96003C12.1636 4.90868 12.0322 4.88223 11.8994 4.88223C11.7666 4.88224 11.6352 4.90868 11.5127 4.96003C11.3903 5.01137 11.2793 5.08659 11.1862 5.1813C11.0931 5.276 11.0198 5.3883 10.9706 5.51163C10.9214 5.63495 10.8973 5.76685 10.8996 5.89961L10.8989 10.8996L5.89961 10.8996C5.76685 10.8973 5.63495 10.9214 5.51162 10.9706C5.38829 11.0198 5.276 11.0931 5.1813 11.1862C5.08659 11.2793 5.01137 11.3903 4.96002 11.5127C4.90868 11.6352 4.88223 11.7666 4.88223 11.8994C4.88223 12.0322 4.90868 12.1637 4.96002 12.2861C5.01137 12.4086 5.08659 12.5196 5.1813 12.6126C5.276 12.7057 5.38829 12.779 5.51162 12.8282C5.63495 12.8774 5.76685 12.9016 5.89961 12.8993L10.8989 12.8993L10.8996 17.8992C10.8973 18.032 10.9214 18.1639 10.9706 18.2872C11.0198 18.4105 11.0931 18.5228 11.1862 18.6175C11.2793 18.7122 11.3903 18.7875 11.5127 18.8388C11.6352 18.8901 11.7666 18.9166 11.8994 18.9166C12.0322 18.9166 12.1636 18.8901 12.2861 18.8388C12.4086 18.7875 12.5196 18.7122 12.6126 18.6175C12.7057 18.5228 12.779 18.4105 12.8282 18.2872C12.8774 18.1639 12.9016 18.032 12.8993 17.8992L12.8993 12.9L17.8992 12.8993C18.032 12.9016 18.1639 12.8774 18.2872 12.8282C18.4105 12.779 18.5228 12.7057 18.6175 12.6126C18.7122 12.5196 18.7875 12.4086 18.8388 12.2861C18.8901 12.1637 18.9166 12.0322 18.9166 11.8994C18.9166 11.7666 18.8901 11.6352 18.8388 11.5127C18.7875 11.3903 18.7122 11.2793 18.6175 11.1862C18.5228 11.0931 18.4105 11.0198 18.2872 10.9706C18.1639 10.9214 18.032 10.8973 17.8992 10.8996L12.8993 10.8989L12.9 10.8996Z" fill="#8FA1BD"/>
</svg>
